<svg width="150" height="38" viewBox="0 0 150 38" fill="none" xmlns="http://www.w3.org/2000/svg">
<path d="M0 37.5237V0.476323H7.39398V37.5237H0ZM8.50308 30.1142H24.7698V37.5237H12.6226L8.50308 30.1142Z" fill="#E63B2E"/>
<path d="M45.0985 0C47.704 0 50.1334 0.511607 52.3868 1.53482C54.6402 2.52275 56.5943 3.88115 58.2492 5.61003C59.904 7.30362 61.1892 9.31476 62.1046 11.6435C63.0553 13.9369 63.5306 16.389 63.5306 19C63.5306 21.2228 63.1961 23.3398 62.5271 25.351C61.8582 27.3621 60.9075 29.1792 59.6752 30.8022C58.4428 32.4253 56.964 33.8189 55.2388 34.9833C53.5487 36.1124 51.6826 36.9239 49.6405 37.4178L45.9435 31.1198C47.4223 31.0139 48.7602 30.6258 49.9574 29.9554C51.1897 29.2498 52.246 28.3677 53.1262 27.3092C54.0065 26.2154 54.693 24.9629 55.186 23.5515C55.6789 22.1049 55.9254 20.5877 55.9254 19C55.9254 17.3417 55.6437 15.7716 55.0803 14.2897C54.5522 12.8078 53.8128 11.52 52.8621 10.4262C51.9115 9.33241 50.7672 8.46797 49.4292 7.83287C48.1265 7.19777 46.6829 6.88022 45.0985 6.88022C43.514 6.88022 42.0528 7.19777 40.7149 7.83287C39.4121 8.46797 38.2678 9.33241 37.282 10.4262C36.3313 11.52 35.5743 12.8078 35.011 14.2897C34.4828 15.7716 34.2188 17.3417 34.2188 19C34.2188 20.6583 34.4828 22.2284 35.011 23.7103C35.5743 25.1922 36.3313 26.48 37.282 27.5738C38.2678 28.6676 39.4121 29.532 40.7149 30.1671C42.0528 30.8022 43.514 31.1198 45.0985 31.1198V38C42.493 38 40.0635 37.506 37.8101 36.5181C35.5567 35.5302 33.6026 34.1718 31.9477 32.4429C30.2929 30.714 28.9902 28.7029 28.0395 26.4095C27.1241 24.0808 26.6663 21.611 26.6663 19C26.6663 16.389 27.1241 13.9369 28.0395 11.6435C28.9902 9.31476 30.2929 7.30362 31.9477 5.61003C33.6026 3.88115 35.5567 2.52275 37.8101 1.53482C40.0635 0.511607 42.493 0 45.0985 0Z" fill="#E63B2E"/>
<path d="M106.77 15.8245C106.841 16.3538 106.893 16.883 106.929 17.4123C106.964 17.9415 106.982 18.4708 106.982 19C106.982 21.611 106.506 24.0808 105.556 26.4095C104.64 28.7029 103.355 30.714 101.7 32.4429C100.08 34.1365 98.1439 35.4773 95.8905 36.4652C93.6371 37.4531 91.2077 37.9471 88.6022 37.9471C85.9967 37.9471 83.532 37.4531 81.2082 36.4652C78.9196 35.4773 76.9127 34.1365 75.1874 32.4429C73.4973 30.714 72.1594 28.7029 71.1735 26.4095C70.1877 24.0808 69.6947 21.611 69.6947 19C69.6947 16.389 70.1877 13.9369 71.1735 11.6435C72.1594 9.31476 73.4973 7.30362 75.1874 5.61003C76.9127 3.88115 78.9196 2.52275 81.2082 1.53482C83.532 0.546892 85.9967 0.0529273 88.6022 0.0529273C92.0175 0.0529273 95.1159 0.882082 97.8975 2.54039C100.714 4.16342 102.968 6.31569 104.658 8.99722L98.4784 12.9666C97.5278 11.0613 96.1722 9.54411 94.4117 8.41504C92.6865 7.2507 90.75 6.66853 88.6022 6.66853C87.0178 6.66853 85.539 7.00372 84.1658 7.6741C82.7926 8.30919 81.5955 9.19127 80.5744 10.3203C79.5534 11.4141 78.7435 12.7196 78.145 14.2368C77.5464 15.7187 77.2471 17.3064 77.2471 19C77.2471 20.6936 77.5464 22.299 78.145 23.8162C78.7435 25.2981 79.5534 26.6035 80.5744 27.7326C81.5955 28.8264 82.7926 29.7085 84.1658 30.3788C85.539 31.0139 87.0178 31.3315 88.6022 31.3315C89.8697 31.3315 91.0668 31.1198 92.1935 30.6964C93.3202 30.273 94.3237 29.6732 95.2039 28.8969C96.0842 28.1207 96.8412 27.221 97.475 26.1978C98.1439 25.1393 98.6369 23.9749 98.9538 22.7047H88.9191L85.539 15.8245H106.77Z" fill="#E63B2E"/>
<path d="M131.568 0C134.173 0 136.603 0.511607 138.856 1.53482C141.11 2.52275 143.064 3.88115 144.719 5.61003C146.373 7.30362 147.659 9.31476 148.574 11.6435C149.525 13.9369 150 16.389 150 19C150 21.2228 149.666 23.3398 148.997 25.351C148.328 27.3621 147.377 29.1792 146.145 30.8022C144.912 32.4253 143.433 33.8189 141.708 34.9833C140.018 36.1124 138.152 36.9239 136.11 37.4178L132.413 31.1198C133.892 31.0139 135.23 30.6258 136.427 29.9554C137.659 29.2498 138.715 28.3677 139.596 27.3092C140.476 26.2154 141.162 24.9629 141.655 23.5515C142.148 22.1049 142.395 20.5877 142.395 19C142.395 17.3417 142.113 15.7716 141.55 14.2897C141.022 12.8078 140.282 11.52 139.332 10.4262C138.381 9.33241 137.237 8.46797 135.899 7.83287C134.596 7.19777 133.152 6.88022 131.568 6.88022C129.983 6.88022 128.522 7.19777 127.184 7.83287C125.882 8.46797 124.737 9.33241 123.751 10.4262C122.801 11.52 122.044 12.8078 121.48 14.2897C120.952 15.7716 120.688 17.3417 120.688 19C120.688 20.6583 120.952 22.2284 121.48 23.7103C122.044 25.1922 122.801 26.48 123.751 27.5738C124.737 28.6676 125.882 29.532 127.184 30.1671C128.522 30.8022 129.983 31.1198 131.568 31.1198V38C128.962 38 126.533 37.506 124.28 36.5181C122.026 35.5302 120.072 34.1718 118.417 32.4429C116.762 30.714 115.46 28.7029 114.509 26.4095C113.593 24.0808 113.136 21.611 113.136 19C113.136 16.389 113.593 13.9369 114.509 11.6435C115.46 9.31476 116.762 7.30362 118.417 5.61003C120.072 3.88115 122.026 2.52275 124.28 1.53482C126.533 0.511607 128.962 0 131.568 0Z" fill="#E63B2E"/>
</svg>
